<svg width="24" height="24" viewBox="0 0 24 24" fill="none" xmlns="http://www.w3.org/2000/svg">
<path d="M12 23C18.0751 23 23 18.0751 23 12C23 5.92487 18.0751 1 12 1C5.92487 1 1 5.92487 1 12C1 18.0751 5.92487 23 12 23Z" fill="white" stroke="black" stroke-miterlimit="10"/>
<path d="M12 13.0999C14.1871 13.0999 15.96 11.327 15.96 9.13993C15.96 6.95288 14.1871 5.17993 12 5.17993C9.81299 5.17993 8.04004 6.95288 8.04004 9.13993C8.04004 11.327 9.81299 13.0999 12 13.0999Z" fill="#00BFFF" stroke="black" stroke-miterlimit="10"/>
<path d="M20.47 19.0034C18.4534 21.4234 15.41 23.0001 12 23.0001C8.59003 23.0001 5.5467 21.4601 3.53003 19.0034C4.7767 15.5568 8.11336 13.1001 12 13.1001C15.8867 13.1001 19.2234 15.5568 20.47 19.0034Z" stroke="black" stroke-miterlimit="10"/>
</svg>
