<svg width="300" height="300" viewBox="0 0 300 300" fill="none" xmlns="http://www.w3.org/2000/svg">
<mask id="mask0" mask-type="alpha" maskUnits="userSpaceOnUse" x="0" y="0" width="300" height="300">
<circle cx="150" cy="150" r="150" fill="#C4C4C4"/>
</mask>
<g mask="url(#mask0)">
<circle cx="150" cy="150" r="150" fill="#F5F5F5"/>
<path fill-rule="evenodd" clip-rule="evenodd" d="M231.536 86.55C231.536 86.55 270.708 137.597 217.502 151.168L231.536 86.55Z" fill="#1E1B23"/>
<path fill-rule="evenodd" clip-rule="evenodd" d="M102 192L95.9759 252.49C92.2746 252.644 87.9565 252.953 82.5588 253.261C86.1059 259.43 101.682 282.563 138.849 284.722C174.628 286.881 172.006 267.912 170.155 261.589C166.454 260.509 162.753 259.584 158.743 258.505L157.509 223.342C157.509 223.342 178.175 226.735 198.84 225.347C222.282 223.805 221.665 184.479 223.978 168.286C225.983 154.715 228.142 141.144 226.445 127.418C226.291 125.567 225.983 123.871 225.52 122.02L179.563 80.3811L105.383 85.7788L96.9012 153.173C93.0457 141.76 81.4821 124.245 73 150C67.5 185.5 102 192 102 192Z" fill="white" stroke="#000222" stroke-width="4.42629" stroke-miterlimit="10"/>
<path opacity="0.15" fill-rule="evenodd" clip-rule="evenodd" d="M206.86 151.322C206.86 154.715 209.791 160.883 213.492 160.883C217.193 160.883 220.123 154.869 220.123 151.322C220.123 147.775 217.193 145.924 213.492 145.924C209.791 145.924 206.86 147.929 206.86 151.322Z" fill="#335573"/>
<path opacity="0.15" fill-rule="evenodd" clip-rule="evenodd" d="M160.903 151.322C160.903 154.406 163.833 159.65 167.38 159.65C170.927 159.65 173.857 154.252 173.857 151.322C173.857 148.237 170.927 146.541 167.38 146.541C163.833 146.541 160.903 148.237 160.903 151.322Z" fill="#335573"/>
<path fill-rule="evenodd" clip-rule="evenodd" d="M71 153.173C71 153.173 35.368 138.368 63.5901 73.1327C105.538 29.6429 153.192 59.5614 153.192 59.5614C153.192 59.5614 163.679 15.1462 192.98 15.3004C234.619 15.4547 240.942 79.9184 240.942 79.9184C240.942 79.9184 234.774 43.8311 246.649 48.9203C258.523 53.8553 286.129 171.37 120.651 114.618C120.651 114.618 134.839 146.695 96.9015 153.173C96.9015 153.173 86 114.618 71 153.173Z" fill="#1E1B23"/>
<path fill-rule="evenodd" clip-rule="evenodd" d="M72.9971 254.494C78.3948 263.439 97.8265 289.502 141.471 291.97C183.572 294.437 182.339 273.155 180.18 264.519C176.787 263.285 173.394 262.36 170.001 261.434C168.459 260.972 170.155 260.972 170.618 264.981C170.926 268.991 169.693 274.543 168.305 276.239C165.22 280.095 160.44 282.408 158.435 282.871C156.584 283.333 155.042 283.642 153.345 284.105C152.112 284.413 145.326 284.876 144.246 284.721C134.531 284.259 129.904 283.796 123.735 282.254C121.576 281.791 119.417 281.174 116.795 280.095C113.865 278.861 109.239 277.165 104.612 274.543C100.602 272.23 96.4385 269.299 93.3541 266.215C89.6528 262.514 87.3395 260.201 85.6431 257.733C84.1009 255.42 84.101 255.574 83.6383 254.957C83.3299 254.494 83.0214 253.878 82.8672 253.569C82.713 252.952 83.6383 252.952 82.4045 253.106C79.4743 253.415 76.2357 253.878 72.9971 254.494Z" fill="#1E1B23"/>
<path d="M213.801 157.953C210.479 157.953 207.786 155.26 207.786 151.939C207.786 148.617 210.479 145.924 213.801 145.924C217.123 145.924 219.815 148.617 219.815 151.939C219.815 155.26 217.123 157.953 213.801 157.953Z" fill="black"/>
<path d="M215.342 150.705C214.49 150.705 213.8 150.015 213.8 149.163C213.8 148.311 214.49 147.621 215.342 147.621C216.194 147.621 216.884 148.311 216.884 149.163C216.884 150.015 216.194 150.705 215.342 150.705Z" fill="white"/>
<path d="M167.688 156.72C164.366 156.72 161.673 154.027 161.673 150.705C161.673 147.384 164.366 144.691 167.688 144.691C171.01 144.691 173.702 147.384 173.702 150.705C173.702 154.027 171.01 156.72 167.688 156.72Z" fill="black"/>
<path d="M169.231 149.625C168.379 149.625 167.689 148.935 167.689 148.083C167.689 147.231 168.379 146.541 169.231 146.541C170.083 146.541 170.773 147.231 170.773 148.083C170.773 148.935 170.083 149.625 169.231 149.625Z" fill="white"/>
<path d="M162.6 136.517C162.6 136.517 150.725 132.045 147.949 147.621" stroke="#1E1B23" stroke-width="8.85257" stroke-miterlimit="10" stroke-linecap="round"/>
<path d="M222.745 146.387C222.745 146.387 220.894 137.134 209.945 141.452" stroke="#1E1B23" stroke-width="8.85257" stroke-miterlimit="10" stroke-linecap="round"/>
<path fill-rule="evenodd" clip-rule="evenodd" d="M238.012 101.663C238.012 101.663 199.458 128.806 171.235 111.996Z" fill="#1E1B23"/>
<path d="M238.012 101.663C238.012 101.663 199.458 128.806 171.235 111.996" stroke="white" stroke-width="2.21314" stroke-miterlimit="10" stroke-linecap="round"/>
<path fill-rule="evenodd" clip-rule="evenodd" d="M236.777 150.088H239.399C240.17 150.088 240.787 149.472 240.787 148.7V146.079C240.787 145.308 240.17 144.691 239.399 144.691H236.777V150.088Z" fill="#1E1B23"/>
<path d="M240.018 147.004L226.601 152.401" stroke="#1E1B23" stroke-width="2.21314" stroke-miterlimit="10"/>
<path fill-rule="evenodd" clip-rule="evenodd" d="M242.486 117.856C242.486 117.856 237.705 126.493 228.606 127.109Z" fill="#1E1B23"/>
<path d="M242.486 117.856C242.486 117.856 237.705 126.493 228.606 127.109" stroke="white" stroke-width="2.21314" stroke-miterlimit="10" stroke-linecap="round"/>
<path d="M207.632 169.365H223.208C231.228 169.365 237.705 162.888 237.705 154.869V144.382C237.705 143.148 236.78 142.223 235.546 142.223H199.304C195.911 142.223 193.135 144.999 193.135 148.392V155.023C193.135 162.888 199.613 169.365 207.632 169.365Z" stroke="#1E1B23" stroke-width="2.21314" stroke-miterlimit="10"/>
<path opacity="0.3" d="M207.632 169.365H223.208C231.228 169.365 237.705 162.888 237.705 154.869V144.382C237.705 143.148 236.78 142.223 235.546 142.223H199.304C195.911 142.223 193.135 144.999 193.135 148.392V155.023C193.135 162.888 199.613 169.365 207.632 169.365Z" fill="#D0E9FD"/>
<g opacity="0.5">
<path opacity="0.5" d="M216.015 144.771L217.433 143.354L228.992 154.913L227.574 156.331L216.015 144.771Z" fill="#D0E9FD"/>
<path opacity="0.5" d="M215.021 145.77L215.458 145.334L227.017 156.893L226.58 157.329L215.021 145.77Z" fill="#D0E9FD"/>
<path opacity="0.5" d="M207.35 153.497L207.787 153.061L219.346 164.62L218.91 165.056L207.35 153.497Z" fill="#D0E9FD"/>
</g>
<path d="M165.992 169.365H150.416C142.397 169.365 135.92 162.888 135.92 154.869V144.382C135.92 143.148 136.845 142.223 138.079 142.223H174.32C177.713 142.223 180.489 144.999 180.489 148.392V155.023C180.489 162.888 174.012 169.365 165.992 169.365Z" stroke="#1E1B23" stroke-width="2.21314" stroke-miterlimit="10"/>
<path opacity="0.3" d="M165.992 169.365H150.416C142.397 169.365 135.92 162.888 135.92 154.869V144.382C135.92 143.148 136.845 142.223 138.079 142.223H174.32C177.713 142.223 180.489 144.999 180.489 148.392V155.023C180.489 162.888 174.012 169.365 165.992 169.365Z" fill="#D0E9FD"/>
<g opacity="0.5">
<path opacity="0.5" d="M145.973 156.401L144.555 154.983L156.114 143.424L157.532 144.842L145.973 156.401Z" fill="#D0E9FD"/>
<path opacity="0.5" d="M146.967 157.39L146.531 156.954L158.09 145.395L158.526 145.831L146.967 157.39Z" fill="#D0E9FD"/>
<path opacity="0.5" d="M154.64 165.005L154.203 164.569L165.762 153.01L166.199 153.446L154.64 165.005Z" fill="#D0E9FD"/>
</g>
<path d="M136.229 144.074L114.638 145.153" stroke="#1E1B23" stroke-width="2.21314" stroke-miterlimit="10"/>
<path d="M193.017 147.696C193.017 147.696 186.54 142.761 180.063 147.696" stroke="#1E1B23" stroke-width="4.42629" stroke-miterlimit="10"/>
<path d="M67.4451 72.6702C67.4451 72.6702 40.3024 73.9039 46.317 81.7691C52.4858 89.7885 60.5052 72.3618 67.4451 72.6702Z" fill="#1E1B23"/>
<path d="M64.5159 72.6702C64.5159 72.6702 44.6216 91.1765 54.4916 93.3356C64.3616 95.4946 58.964 76.9883 64.5159 72.6702Z" fill="#1E1B23"/>
<path d="M188.199 193.887C187.274 196.508 185.886 198.976 183.573 200.672C180.797 202.677 176.941 203.294 174.011 201.598C169.539 198.976 169.076 193.424 169.385 188.797C175.245 191.573 181.568 193.27 188.199 193.887Z" fill="#1E1B23"/>
<path d="M188.046 161.038C188.046 161.038 188.662 173.684 204.084 182.474C212.721 187.409 174.474 198.513 188.046 161.038Z" fill="#335573"/>
<path d="M171.853 197.588C172.47 198.821 173.395 199.747 174.629 200.518C177.096 201.906 180.181 201.597 182.494 200.055C181.877 197.742 179.41 195.891 176.479 195.891C174.629 195.891 173.087 196.508 171.853 197.588Z" fill="white"/>
<path opacity="0.4" d="M157.356 223.188C157.356 223.188 126.512 217.79 121.577 211.776L158.281 243.236L157.356 223.188Z" fill="black"/>
<path fill-rule="evenodd" clip-rule="evenodd" d="M82.5591 253.106C83.7928 252.952 82.8675 252.952 83.0217 253.569C83.0217 253.878 83.3301 254.34 83.7928 254.957C84.1012 255.42 84.1013 255.266 85.7977 257.733C87.4941 260.201 89.8074 262.514 93.5086 266.215C96.593 269.299 100.757 272.384 104.767 274.543C109.393 277.165 114.02 278.861 116.95 280.095C119.572 281.174 121.885 281.791 123.89 282.254C129.904 283.642 134.685 284.105 144.401 284.721C145.635 284.721 152.42 284.259 153.5 284.105C155.196 283.796 156.739 283.488 158.589 282.871C160.44 282.408 165.221 280.095 168.459 276.239C169.847 274.543 171.081 269.145 170.773 264.981C170.31 260.972 168.613 260.972 170.156 261.434C173.548 262.36 176.941 263.439 180.334 264.519C182.493 273.155 183.727 294.437 141.625 291.97C97.981 289.348 78.5493 263.285 73.1517 254.494C76.2361 253.878 79.4747 253.415 82.5591 253.106Z" fill="#080606"/>
<path d="M4.5001 271.5C14.9001 261.5 60.8334 254 82.5001 251.5C103 285.5 126.5 286 155.5 285.5C178.7 285.1 176.167 268.667 172 260.5C192.167 263.167 230.8 280.9 224 330.5C215.5 392.5 -8.4999 284 4.5001 271.5Z" fill="black"/>
</g>
</svg>
