<svg width="400" height="400" viewBox="0 0 400 400" fill="none" xmlns="http://www.w3.org/2000/svg">
<circle cx="200" cy="200" r="200" fill="white"/>
<path d="M233.408 247.303C238.926 247.303 243.417 251.793 243.417 257.311C243.417 262.828 238.926 267.318 233.408 267.318H166.863C161.344 267.318 156.854 262.828 156.854 257.311C156.854 251.793 161.344 247.303 166.863 247.303H233.408ZM233.408 245.14H166.863C160.154 245.14 154.69 250.603 154.69 257.311C154.69 264.019 160.154 269.482 166.863 269.482H233.408C240.116 269.482 245.581 264.019 245.581 257.311C245.581 250.603 240.17 245.14 233.408 245.14Z" fill="black"/>
<path d="M245.31 293.284H76.5671C71.1028 293.284 66.6665 288.848 66.6665 283.384V79.2326C66.6665 73.769 71.1028 69.3333 76.5671 69.3333H323.433C328.897 69.3333 333.333 73.769 333.333 79.2326V283.33C333.333 288.794 328.897 293.229 323.433 293.229H314.668" fill="white"/>
<path d="M245.31 293.284H76.5671C71.1028 293.284 66.6665 288.848 66.6665 283.384V79.2326C66.6665 73.769 71.1028 69.3333 76.5671 69.3333H323.433C328.897 69.3333 333.333 73.769 333.333 79.2326V283.33C333.333 288.794 328.897 293.229 323.433 293.229H314.668" stroke="black" stroke-width="5" stroke-miterlimit="10" stroke-linecap="round"/>
<path d="M67.7485 113.42H86.6841" stroke="black" stroke-width="5" stroke-miterlimit="10" stroke-linecap="round"/>
<path d="M106.161 113.42H332.846" stroke="black" stroke-width="5" stroke-miterlimit="10" stroke-linecap="round"/>
<path d="M283.614 89.3481H309.042" stroke="black" stroke-width="5" stroke-miterlimit="10" stroke-linecap="round"/>
<path d="M96.9634 93.6757C99.0549 93.6757 100.75 91.9804 100.75 89.8891C100.75 87.7979 99.0549 86.1025 96.9634 86.1025C94.8718 86.1025 93.1763 87.7979 93.1763 89.8891C93.1763 91.9804 94.8718 93.6757 96.9634 93.6757Z" fill="black"/>
<path d="M115.358 93.6757C117.449 93.6757 119.145 91.9804 119.145 89.8891C119.145 87.7979 117.449 86.1025 115.358 86.1025C113.266 86.1025 111.571 87.7979 111.571 89.8891C111.571 91.9804 113.266 93.6757 115.358 93.6757Z" fill="black"/>
<path d="M134.834 93.6757C136.926 93.6757 138.622 91.9804 138.622 89.8891C138.622 87.7979 136.926 86.1025 134.834 86.1025C132.743 86.1025 131.047 87.7979 131.047 89.8891C131.047 91.9804 132.743 93.6757 134.834 93.6757Z" fill="black"/>
<path d="M272.09 217.552H128.234C125.259 217.552 122.824 215.117 122.824 212.142V142.361C122.824 139.385 125.259 136.951 128.234 136.951H272.09C275.066 136.951 277.501 139.385 277.501 142.361V212.142C277.555 215.117 275.12 217.552 272.09 217.552Z" fill="#F3ECEB" stroke="black" stroke-width="5" stroke-miterlimit="10"/>
<path d="M124.447 138.574L199.648 168.326L275.932 138.574" stroke="black" stroke-width="5" stroke-miterlimit="10"/>
<path d="M306.391 274.242L262.352 270.131C259.863 269.915 257.753 272.024 257.97 274.513L262.082 318.546C262.406 321.953 266.518 323.414 268.953 321.034L281.017 308.971L300.872 328.823C302.441 330.392 304.984 330.392 306.553 328.823L316.724 318.654C318.293 317.085 318.293 314.543 316.724 312.974L296.869 293.121L308.934 281.058C311.26 278.678 309.799 274.567 306.391 274.242Z" fill="#00BFFF" stroke="black" stroke-width="5" stroke-miterlimit="10" stroke-linecap="round"/>
</svg>
