<svg width="96" height="97" viewBox="0 0 96 97" fill="none" xmlns="http://www.w3.org/2000/svg">
<circle cx="48" cy="48.5674" r="48" fill="#F5F5F5"/>
<path d="M52.5441 70.7093H23.3487C18.4339 70.7093 14.3994 66.6748 14.3994 61.76V55.8916H61.4934V61.76C61.4934 66.6748 57.4589 70.7093 52.5441 70.7093Z" fill="#00BFFF" stroke="black" stroke-miterlimit="10"/>
<path d="M28.6292 27.7226C29.0694 27.4292 29.2161 26.8424 28.8493 26.4022C27.2355 24.5684 24.5214 23.9815 22.3207 25.2286C20.12 26.5489 19.1664 29.1897 19.9733 31.5371C20.12 32.0506 20.7069 32.2706 21.2204 31.9772L22.2473 31.3904C22.6875 31.097 23.3477 31.3904 23.4944 31.9039L24.2279 34.1779C24.3746 34.6914 24.9615 34.9114 25.475 34.6914L28.7759 32.8575C29.2161 32.5641 29.3628 31.9772 28.996 31.5371L27.3822 29.7032C27.0154 29.2631 27.1621 28.6762 27.6023 28.3828L28.6292 27.7226Z" stroke="black" stroke-miterlimit="10"/>
<path d="M54.3064 50.5365C54.5998 50.9766 55.1867 51.1233 55.6268 50.7565C57.4607 49.1427 58.0475 46.4286 56.8005 44.2279C55.5534 42.0273 52.9127 41.0737 50.6387 41.8806C50.1252 42.0273 49.9051 42.6141 50.1985 43.1276L50.7854 44.1546C51.0788 44.5947 50.7854 45.2549 50.2719 45.4016L47.9979 46.1352C47.4844 46.2819 47.2643 46.8687 47.4844 47.3822L49.3183 50.6832C49.6117 51.1233 50.1985 51.27 50.6387 50.9032L52.4725 49.2894C52.9127 48.9227 53.4995 49.0694 53.7929 49.5095L54.3064 50.5365Z" stroke="black" stroke-miterlimit="10"/>
<path d="M39.8537 44.0814C42.3655 44.0814 44.4017 42.0452 44.4017 39.5334C44.4017 37.0216 42.3655 34.9854 39.8537 34.9854C37.3419 34.9854 35.3057 37.0216 35.3057 39.5334C35.3057 42.0452 37.3419 44.0814 39.8537 44.0814Z" stroke="black" stroke-miterlimit="10"/>
<path d="M19.3871 42.0276C19.3871 42.0276 21.9545 43.7881 23.9351 41.9543C25.9157 40.1204 28.9232 38.9467 32.591 42.6144V51.1236C32.591 51.1236 28.6298 49.0697 25.0354 50.6102C21.441 52.1506 19.167 50.3167 19.167 50.3167L19.3871 42.0276Z" stroke="black" stroke-miterlimit="10"/>
<path d="M19.167 45.4744C19.167 45.4744 21.0742 47.3082 24.2285 45.7678C27.3828 44.2273 29.0699 42.9803 32.4443 45.4744" stroke="black" stroke-miterlimit="10"/>
<path d="M61.6396 59.8525H67.8015" stroke="black" stroke-miterlimit="10"/>
<path d="M82.4005 63.5208H67.7295V56.332H82.3272C84.3077 56.332 85.9216 57.9458 85.9216 59.9264C85.9949 61.907 84.3811 63.5208 82.4005 63.5208Z" fill="#00BFFF" stroke="black" stroke-miterlimit="10"/>
</svg>
