<svg width="24" height="24" viewBox="0 0 24 24" fill="none" xmlns="http://www.w3.org/2000/svg">
<path d="M20.8597 23H3.14028C1.94571 23 1 22.3033 1 21.4233V2.57667C1 1.69667 1.94571 1 3.14028 1H20.8597C22.0543 1 23 1.69667 23 2.57667V21.3867C23 22.3033 22.0045 23 20.8597 23Z" fill="white" stroke="#222222" stroke-miterlimit="10" stroke-linecap="round"/>
<path d="M10 6.0271H13.3846" stroke="#222222" stroke-miterlimit="10" stroke-linecap="round"/>
<path d="M11 4.18555H12.8914" stroke="#222222" stroke-miterlimit="10" stroke-linecap="round"/>
<path d="M4.38464 11.9004H11.8009" stroke="#222222" stroke-miterlimit="10" stroke-linecap="round"/>
<path d="M17 15C18.6568 15 20 13.6569 20 12C20 10.3431 18.6568 9 17 9C15.3431 9 14 10.3431 14 12C14 13.6569 15.3431 15 17 15Z" fill="#00BFFF" stroke="#222222" stroke-miterlimit="10" stroke-linecap="round"/>
<path d="M16 11.4286L16.7368 12L18 11" stroke="#222222" stroke-miterlimit="10" stroke-linecap="round"/>
</svg>
