<svg width="101" height="100" viewBox="0 0 101 100" fill="none" xmlns="http://www.w3.org/2000/svg">
<path d="M50.7998 100C78.414 100 100.8 77.6142 100.8 50C100.8 22.3858 78.414 0 50.7998 0C23.1856 0 0.799805 22.3858 0.799805 50C0.799805 77.6142 23.1856 100 50.7998 100Z" fill="#EF9700"/>
<path d="M77.4999 69.9H24.1999C22.3999 69.9 20.8999 68.4 20.8999 66.6V26.3C20.8999 24.5 22.3999 23 24.1999 23H77.4999C79.2999 23 80.7999 24.5 80.7999 26.3V66.5C80.7999 68.4 79.2999 69.9 77.4999 69.9Z" fill="#F3ECEB" stroke="#222222" stroke-miterlimit="10" stroke-linecap="round"/>
<path d="M63.7 48.9L75.6 42.6L50.8 30.8L26 42.6L37.9 48.9H63.7Z" stroke="#222222" stroke-miterlimit="10" stroke-linecap="round"/>
<path d="M63.8001 48.9H37.6001V59.5H63.8001V48.9Z" fill="#00BFFF" stroke="#222222" stroke-miterlimit="10" stroke-linecap="round"/>
<path d="M72 44.6001V52.2001" stroke="#222222" stroke-miterlimit="10" stroke-linecap="round"/>
<path d="M60.1999 69.9H41.3999V77.1H60.1999V69.9Z" fill="#F3ECEB" stroke="#222222" stroke-miterlimit="10" stroke-linecap="round"/>
<path d="M34.3999 77.1H67.1999" stroke="#222222" stroke-miterlimit="10" stroke-linecap="round"/>
</svg>
