<svg width="100" height="101" viewBox="0 0 100 101" fill="none" xmlns="http://www.w3.org/2000/svg">
<path d="M50 100.9C77.6142 100.9 100 78.5141 100 50.8999C100 23.2857 77.6142 0.899902 50 0.899902C22.3858 0.899902 0 23.2857 0 50.8999C0 78.5141 22.3858 100.9 50 100.9Z" fill="#EF9700"/>
<path d="M74.7999 80.1H25.5999C22.6999 80.1 20.3999 77.8 20.3999 74.9V39.2C20.3999 36.3 22.6999 34 25.5999 34H74.7999C77.6999 34 79.9999 36.3 79.9999 39.2V74.9C79.9999 77.7 77.6999 80.1 74.7999 80.1Z" fill="#F3ECEB" stroke="#222222" stroke-miterlimit="10"/>
<path d="M53.8002 62.1999H46.6002C43.1002 62.1999 40.2002 59.3999 40.2002 55.7999C40.2002 52.2999 43.0002 49.3999 46.6002 49.3999H53.8002C57.3002 49.3999 60.2002 52.1999 60.2002 55.7999C60.1002 59.2999 57.3002 62.1999 53.8002 62.1999Z" fill="#00BFFF" stroke="#222222" stroke-miterlimit="10"/>
<path d="M60.9 33.5999H39.5V26.2C39.5 23.7 41.5 21.7 44 21.7H56.4C58.9 21.7 60.9 23.7 60.9 26.2V33.5999Z" stroke="#222222" stroke-miterlimit="10"/>
<path d="M20 57.3999H40.7" stroke="#222222" stroke-miterlimit="10"/>
<path d="M60.1001 57.3999H80.0001" stroke="#222222" stroke-miterlimit="10"/>
</svg>
