<svg width="100" height="100" viewBox="0 0 100 100" fill="none" xmlns="http://www.w3.org/2000/svg">
<path d="M50 100C77.6142 100 100 77.6142 100 50C100 22.3858 77.6142 0 50 0C22.3858 0 0 22.3858 0 50C0 77.6142 22.3858 100 50 100Z" fill="#F3ECEB"/>
<path d="M49.5324 15.8999V22.0999C49.5324 22.6999 50.0324 23.1999 50.6324 23.1999H59.1324C59.7324 23.1999 60.2324 23.6999 60.2324 24.2999V27.9999C60.2324 28.5999 59.7324 29.0999 59.1324 29.0999H40.3324C39.7324 29.0999 39.2324 29.5999 39.2324 30.1999V33.4999C39.2324 34.0999 39.7324 34.5999 40.3324 34.5999H48.6324C49.2324 34.5999 49.7324 35.0999 49.7324 35.6999V40.3999" stroke="#222222" stroke-miterlimit="10"/>
<path d="M52.2325 40.4999H47.3325V44.5999H52.2325V40.4999Z" stroke="#222222" stroke-miterlimit="10"/>
<path d="M78.6325 59.0999C78.9325 63.8999 77.1325 68.1999 74.1325 71.2999C72.3325 73.0999 70.1325 74.3999 67.7325 75.1999C65.6325 75.7999 63.3325 76.0999 61.2325 75.5999C58.7325 74.9999 57.3325 73.1999 55.2325 71.8999C53.6325 70.8999 51.7325 70.3999 49.8325 70.3999C48.1325 70.3999 46.4325 70.7999 44.9325 71.5999C43.9325 72.0999 43.2325 72.8999 42.4325 73.5999C38.9325 76.4999 34.4325 76.0999 30.5325 74.2999C27.2325 72.7999 24.4325 70.2999 22.7325 67.0999C21.7325 65.2999 21.1325 63.1999 21.0325 61.0999C20.7325 56.3999 22.5325 52.0999 25.5325 48.9999C28.3325 46.1999 32.2325 44.3999 36.5325 44.3999H62.6325C70.8325 44.6999 78.0325 50.8999 78.6325 59.0999Z" fill="#F3ECEB" stroke="#222222" stroke-miterlimit="10"/>
<path d="M43.4324 57.2999H38.5324V52.3999H33.7324V57.2999H28.7324V62.0999H33.7324V67.0999H38.5324V62.0999H43.4324V57.2999Z" fill="#00BFFF" stroke="#222222" stroke-miterlimit="10"/>
<path d="M63.8322 58.2999C65.9309 58.2999 67.6322 56.5986 67.6322 54.5C67.6322 52.4013 65.9309 50.7 63.8322 50.7C61.7335 50.7 60.0322 52.4013 60.0322 54.5C60.0322 56.5986 61.7335 58.2999 63.8322 58.2999Z" fill="#EF9700" stroke="#222222" stroke-miterlimit="10"/>
<path d="M56.5324 64.3C58.6311 64.3 60.3324 62.5986 60.3324 60.5C60.3324 58.4013 58.6311 56.7 56.5324 56.7C54.4337 56.7 52.7324 58.4013 52.7324 60.5C52.7324 62.5986 54.4337 64.3 56.5324 64.3Z" fill="#EF9700" stroke="#222222" stroke-miterlimit="10"/>
<path d="M63.8322 70.0999C65.9309 70.0999 67.6322 68.3986 67.6322 66.2999C67.6322 64.2012 65.9309 62.4999 63.8322 62.4999C61.7335 62.4999 60.0322 64.2012 60.0322 66.2999C60.0322 68.3986 61.7335 70.0999 63.8322 70.0999Z" fill="#EF9700" stroke="#222222" stroke-miterlimit="10"/>
<path d="M71.1325 64.3C73.2312 64.3 74.9326 62.5986 74.9326 60.5C74.9326 58.4013 73.2312 56.7 71.1325 56.7C69.0338 56.7 67.3325 58.4013 67.3325 60.5C67.3325 62.5986 69.0338 64.3 71.1325 64.3Z" fill="#EF9700" stroke="#222222" stroke-miterlimit="10"/>
</svg>
