<svg width="40" height="40" viewBox="0 0 40 40" fill="none" xmlns="http://www.w3.org/2000/svg">
<rect width="40" height="40" rx="20" fill="white"/>
<path d="M12.5975 18.6424H17.4791C18.301 18.6424 18.9734 19.3149 18.9734 20.1368C18.9734 20.9587 18.301 21.6312 17.4791 21.6312H16.3583" stroke="#140C03" stroke-width="0.8392" stroke-miterlimit="10" stroke-linecap="round"/>
<path d="M16.3583 21.6063H17.504C18.2761 21.6063 18.8988 22.2289 18.8988 23.001C18.8988 23.7731 18.2761 24.3957 17.504 24.3957H16.3583" stroke="#140C03" stroke-width="0.8392" stroke-miterlimit="10" stroke-linecap="round"/>
<path d="M16.3583 24.3708H17.504C18.2761 24.3708 18.8988 24.9935 18.8988 25.7656C18.8988 26.5377 18.2761 27.1603 17.504 27.1603H16.3583" stroke="#140C03" stroke-width="0.8392" stroke-miterlimit="10" stroke-linecap="round"/>
<path d="M16.3583 27.1105H17.504C18.2761 27.1105 18.8988 27.7332 18.8988 28.5053C18.8988 29.2773 18.2761 29.9 17.504 29.9H11.5016" stroke="#140C03" stroke-width="0.8392" stroke-miterlimit="10" stroke-linecap="round"/>
<path d="M15.8353 18.6424C15.8353 18.6424 13.0458 14.7322 11.0035 16.8741L7.4419 20.5602C7.24265 20.7594 6.96869 20.884 6.69472 20.884H5.77319C5.32488 20.884 4.9762 21.2327 4.9762 21.681V26.9113C4.9762 27.3596 5.32488 27.7083 5.77319 27.7083H7.14303C7.14303 27.7083 7.59134 29.7257 9.73327 29.8502" stroke="#140C03" stroke-width="0.8392" stroke-miterlimit="10" stroke-linecap="round"/>
<path d="M26.9683 18.6424H22.0867C21.2648 18.6424 20.5923 19.3149 20.5923 20.1368C20.5923 20.9587 21.2648 21.6312 22.0867 21.6312H23.2075" stroke="#140C03" stroke-width="0.8392" stroke-miterlimit="10" stroke-linecap="round"/>
<path d="M23.2075 21.6063H22.0618C21.2897 21.6063 20.6671 22.2289 20.6671 23.001C20.6671 23.7731 21.2897 24.3957 22.0618 24.3957H23.2075" stroke="#140C03" stroke-width="0.8392" stroke-miterlimit="10" stroke-linecap="round"/>
<path d="M23.2075 24.3708H22.0618C21.2897 24.3708 20.6671 24.9935 20.6671 25.7656C20.6671 26.5377 21.2897 27.1603 22.0618 27.1603H23.2075" stroke="#140C03" stroke-width="0.8392" stroke-miterlimit="10" stroke-linecap="round"/>
<path d="M23.2075 27.1105H22.0618C21.2897 27.1105 20.6671 27.7332 20.6671 28.5053C20.6671 29.2773 21.2897 29.9 22.0618 29.9H28.0642" stroke="#140C03" stroke-width="0.8392" stroke-miterlimit="10" stroke-linecap="round"/>
<path d="M23.7305 18.6424C23.7305 18.6424 26.52 14.7322 28.5623 16.8741L32.1239 20.5851C32.3231 20.7844 32.5971 20.9089 32.8711 20.9089H33.7926C34.2409 20.9089 34.5896 21.2576 34.5896 21.7059V26.9362C34.5896 27.3845 34.2409 27.7332 33.7926 27.7332H32.4228C32.4228 27.7332 31.9745 29.7506 29.8325 29.8751" stroke="#140C03" stroke-width="0.8392" stroke-miterlimit="10" stroke-linecap="round"/>
<path d="M14.4156 11.4196L17.0307 14.0099" stroke="#140C03" stroke-miterlimit="10" stroke-linecap="round"/>
<path d="M19.5712 10V14.7322" stroke="#140C03" stroke-miterlimit="10" stroke-linecap="round"/>
<path d="M22.6844 13.8355L24.8015 11.7434" stroke="#140C03" stroke-miterlimit="10" stroke-linecap="round"/>
</svg>
