<svg width="400" height="400" viewBox="0 0 400 400" fill="none" xmlns="http://www.w3.org/2000/svg">
<circle cx="200" cy="200" r="200" fill="white"/>
<path d="M323.486 312H76.5673C71.1031 312 66.6667 307.563 66.6667 302.099V97.9014C66.6667 92.4367 71.1031 88 76.5673 88H323.432C328.897 88 333.333 92.4367 333.333 97.9014V302.044C333.387 307.563 328.951 312 323.486 312Z" fill="white" stroke="#222222" stroke-width="5" stroke-miterlimit="10"/>
<path d="M298.491 189.179H210.306C203.597 189.179 198.133 183.714 198.133 177.005C198.133 170.296 203.597 164.831 210.306 164.831H298.491C305.2 164.831 310.664 170.296 310.664 177.005C310.664 183.714 305.2 189.179 298.491 189.179Z" fill="#00BFFF" stroke="#222222" stroke-width="5" stroke-miterlimit="10"/>
<path d="M67.7488 132.097H86.6843" stroke="#222222" stroke-width="5" stroke-miterlimit="10" stroke-linecap="round"/>
<path d="M106.161 132.097H332.846" stroke="#222222" stroke-width="5" stroke-miterlimit="10" stroke-linecap="round"/>
<path d="M283.614 108.019H309.041" stroke="#222222" stroke-width="5" stroke-miterlimit="10" stroke-linecap="round"/>
<path d="M96.9636 112.348C99.0552 112.348 100.751 110.652 100.751 108.56C100.751 106.469 99.0552 104.773 96.9636 104.773C94.8721 104.773 93.1765 106.469 93.1765 108.56C93.1765 110.652 94.8721 112.348 96.9636 112.348Z" fill="#222222"/>
<path d="M115.358 112.348C117.45 112.348 119.145 110.652 119.145 108.56C119.145 106.469 117.45 104.773 115.358 104.773C113.267 104.773 111.571 106.469 111.571 108.56C111.571 110.652 113.267 112.348 115.358 112.348Z" fill="#222222"/>
<path d="M134.835 112.348C136.926 112.348 138.622 110.652 138.622 108.56C138.622 106.469 136.926 104.773 134.835 104.773C132.743 104.773 131.048 106.469 131.048 108.56C131.048 110.652 132.743 112.348 134.835 112.348Z" fill="#222222"/>
<path d="M203.002 211.903H309.041" stroke="#222222" stroke-width="5" stroke-miterlimit="10" stroke-linecap="round"/>
<path d="M203.002 235.169H309.041" stroke="#222222" stroke-width="5" stroke-miterlimit="10" stroke-linecap="round"/>
<path d="M203.002 255.188H254.94" stroke="#222222" stroke-width="5" stroke-miterlimit="10" stroke-linecap="round"/>
<path d="M172.543 271.42C172.543 248.587 153.986 230.029 131.155 230.029C108.325 230.029 89.7678 248.587 89.7678 271.42H172.543Z" fill="#FFA939" stroke="#222222" stroke-width="5" stroke-miterlimit="10"/>
<path d="M131.156 222.725C118.766 222.725 108.704 212.661 108.704 200.271V175.111H153.608V200.271C153.608 212.661 143.545 222.725 131.156 222.725Z" fill="#F3ECEB" stroke="#222222" stroke-width="5" stroke-miterlimit="10"/>
<path d="M154.311 175.111H114.817C98.965 175.111 102.373 162.288 102.373 146.435H140.028C147.927 146.435 154.311 152.819 154.311 160.719V175.111Z" fill="#222222" stroke="#222222" stroke-width="5" stroke-miterlimit="10"/>
<path d="M123.581 221.101V230.841" stroke="#222222" stroke-width="5" stroke-miterlimit="10"/>
<path d="M138.73 222.183V229.758" stroke="#222222" stroke-width="5" stroke-miterlimit="10"/>
</svg>
