<svg width="600" height="600" viewBox="0 0 600 600" fill="none" xmlns="http://www.w3.org/2000/svg">
<path fill-rule="evenodd" clip-rule="evenodd" d="M472.204 413.755C367.043 430.968 644.12 120.549 528.834 157.941C413.548 195.333 376.156 270.19 448.987 93.2105C455.641 77.1544 465.26 49.454 446.456 37.5203C436.981 31.5174 425.482 31.5174 414.705 32.4576C388.09 34.772 362.342 45.1145 337.39 54.1551C311.064 63.6296 285.099 74.0444 259.568 85.5441C208.579 108.471 159.398 135.738 113.834 168.139C106.963 173.057 98.2836 178.988 89.46 185.786C61.4702 207.484 32.1063 237.716 55.9012 269.466C77.4541 298.252 128.009 290.368 157.518 284.293C282.134 258.762 129.022 338.32 54.6717 389.381C-5.86427 430.968 38.6879 483.982 57.3477 502.208C56.6968 525.28 62.0489 573.521 123.453 538.081C202.287 492.589 168.945 536.562 228.107 562.382C276.999 583.718 434.739 535.55 493.901 501.991C520.083 490.708 568.396 464.961 586.043 423.157C610.778 364.574 472.204 413.755 472.204 413.755Z" fill="#00BFFF"/>
<path fill-rule="evenodd" clip-rule="evenodd" d="M561.163 473.64H440.381C434.161 473.64 429.17 468.649 429.17 462.429V272.07C429.17 265.85 434.161 260.86 440.381 260.86H561.163C567.383 260.86 572.374 265.85 572.374 272.07V462.429C572.374 468.577 567.311 473.64 561.163 473.64Z" fill="#F3ECEB" stroke="#090909" stroke-width="2.893" stroke-miterlimit="10"/>
<path d="M429.46 289.211H572.88" stroke="#090909" stroke-width="2.893" stroke-miterlimit="10"/>
<path d="M439.368 274.674H448.192" stroke="#090909" stroke-width="4.3395" stroke-miterlimit="10" stroke-linecap="round"/>
<path d="M456.075 274.674H464.826" stroke="#090909" stroke-width="4.3395" stroke-miterlimit="10" stroke-linecap="round"/>
<path d="M530.931 274.674H558.053" stroke="#090909" stroke-width="4.3395" stroke-miterlimit="10" stroke-linecap="round"/>
<path d="M491.684 389.309L510.706 322.625" stroke="#060606" stroke-width="3.61625" stroke-miterlimit="10" stroke-linecap="round"/>
<path d="M486.549 377.231L465.286 355.967L486.549 334.704" stroke="#060606" stroke-width="3.61625" stroke-miterlimit="10" stroke-linecap="round"/>
<path d="M516.058 377.231L537.321 355.967L516.058 334.704" stroke="#060606" stroke-width="3.61625" stroke-miterlimit="10" stroke-linecap="round"/>
<path fill-rule="evenodd" clip-rule="evenodd" d="M388.958 330.292H268.175C261.955 330.292 256.965 325.301 256.965 319.081V128.722C256.965 122.502 261.955 117.512 268.175 117.512H388.958C395.178 117.512 400.168 122.502 400.168 128.722V319.081C400.24 325.301 395.178 330.292 388.958 330.292Z" fill="#F3ECEB" stroke="#090909" stroke-width="2.893" stroke-miterlimit="10"/>
<path d="M257.326 145.863H400.674" stroke="#090909" stroke-width="2.893" stroke-miterlimit="10"/>
<path d="M267.235 131.398H276.058" stroke="#090909" stroke-width="4.3395" stroke-miterlimit="10" stroke-linecap="round"/>
<path d="M283.87 131.398H292.693" stroke="#090909" stroke-width="4.3395" stroke-miterlimit="10" stroke-linecap="round"/>
<path d="M358.798 131.398H385.92" stroke="#090909" stroke-width="4.3395" stroke-miterlimit="10" stroke-linecap="round"/>
<path d="M323.938 247.769H275.697C273.093 247.769 270.923 245.672 270.923 242.996V204.736C270.923 202.132 273.021 199.962 275.697 199.962H323.938C326.541 199.962 328.711 202.06 328.711 204.736V242.996C328.711 245.672 326.614 247.769 323.938 247.769Z" stroke="black" stroke-width="3.61625" stroke-miterlimit="10"/>
<path d="M271.213 237.788L290.596 218.405C290.885 218.116 291.247 218.188 291.464 218.477L313.667 247.335" stroke="black" stroke-width="3.61625" stroke-miterlimit="10"/>
<path d="M302.24 232.798L314.825 219.996C315.042 219.779 315.403 219.779 315.692 219.996L328.277 231.857" stroke="black" stroke-width="3.61625" stroke-miterlimit="10"/>
<path d="M375.288 181.953H282.423C276.637 181.953 271.936 177.252 271.936 171.466C271.936 165.68 276.637 160.979 282.423 160.979H375.288C381.074 160.979 385.775 165.68 385.775 171.466C385.775 177.252 381.074 181.953 375.288 181.953Z" stroke="black" stroke-width="3.61625" stroke-miterlimit="10"/>
<path d="M345.997 206.471H384.184" stroke="black" stroke-width="7.23249" stroke-miterlimit="10" stroke-linecap="round"/>
<path d="M345.997 223.106H384.184" stroke="black" stroke-width="7.23249" stroke-miterlimit="10" stroke-linecap="round"/>
<path d="M345.273 239.741H383.461" stroke="black" stroke-width="7.23249" stroke-miterlimit="10" stroke-linecap="round"/>
<path fill-rule="evenodd" clip-rule="evenodd" d="M209.23 439.285H88.4474C82.2275 439.285 77.2371 434.295 77.2371 428.075V237.716C77.2371 231.496 82.2275 226.505 88.4474 226.505H209.23C215.45 226.505 220.44 231.496 220.44 237.716V428.075C220.44 434.295 215.378 439.285 209.23 439.285Z" fill="#F3ECEB" stroke="#090909" stroke-width="2.893" stroke-miterlimit="10"/>
<path d="M77.5264 254.857H220.947" stroke="#090909" stroke-width="2.893" stroke-miterlimit="10"/>
<path d="M87.4349 240.392H96.2586" stroke="#090909" stroke-width="4.3395" stroke-miterlimit="10" stroke-linecap="round"/>
<path d="M104.142 240.392H112.893" stroke="#090909" stroke-width="4.3395" stroke-miterlimit="10" stroke-linecap="round"/>
<path d="M178.998 240.392H206.192" stroke="#090909" stroke-width="4.3395" stroke-miterlimit="10" stroke-linecap="round"/>
<path d="M136.756 338.962H121.325L118.852 346.265H108.309L123.269 304.919H134.931L149.891 346.265H139.23L136.756 338.962ZM134.165 331.187L129.041 316.051L123.976 331.187H134.165ZM152.441 329.774C152.441 326.397 153.069 323.432 154.326 320.88C155.622 318.328 157.369 316.365 159.568 314.99C161.767 313.616 164.221 312.929 166.93 312.929C169.247 312.929 171.269 313.4 172.997 314.343C174.763 315.285 176.118 316.522 177.061 318.053V313.4H187.132V346.265H177.061V341.612C176.079 343.144 174.705 344.38 172.938 345.323C171.21 346.265 169.188 346.736 166.871 346.736C164.201 346.736 161.767 346.049 159.568 344.675C157.369 343.261 155.622 341.278 154.326 338.726C153.069 336.135 152.441 333.151 152.441 329.774ZM177.061 329.833C177.061 327.32 176.354 325.337 174.94 323.884C173.566 322.431 171.878 321.705 169.875 321.705C167.872 321.705 166.164 322.431 164.751 323.884C163.377 325.298 162.689 327.261 162.689 329.774C162.689 332.287 163.377 334.289 164.751 335.781C166.164 337.234 167.872 337.961 169.875 337.961C171.878 337.961 173.566 337.234 174.94 335.781C176.354 334.329 177.061 332.346 177.061 329.833Z" fill="black"/>
<path d="M122.585 281.617C127.378 281.617 131.264 277.731 131.264 272.938C131.264 268.145 127.378 264.259 122.585 264.259C117.791 264.259 113.906 268.145 113.906 272.938C113.906 277.731 117.791 281.617 122.585 281.617Z" fill="#1652F0" stroke="#090909" stroke-width="2.91636" stroke-miterlimit="10"/>
<path d="M149.056 281.617C153.849 281.617 157.735 277.731 157.735 272.938C157.735 268.145 153.849 264.259 149.056 264.259C144.262 264.259 140.377 268.145 140.377 272.938C140.377 277.731 144.262 281.617 149.056 281.617Z" fill="#00BFFF" stroke="#090909" stroke-width="2.91636" stroke-miterlimit="10"/>
<path d="M175.527 281.617C180.32 281.617 184.206 277.731 184.206 272.938C184.206 268.145 180.32 264.259 175.527 264.259C170.733 264.259 166.848 268.145 166.848 272.938C166.848 277.731 170.733 281.617 175.527 281.617Z" fill="#EF9700" stroke="#090909" stroke-width="2.91636" stroke-miterlimit="10"/>
<path d="M277.288 433.933L276.42 435.091L275.624 436.175L273.961 438.345C272.876 439.792 271.791 441.166 270.634 442.54C268.392 445.361 266.077 448.037 263.691 450.785C258.917 456.209 253.927 461.417 247.924 466.335C244.886 468.794 241.704 471.181 237.581 473.278C235.484 474.291 233.17 475.231 230.204 475.809C228.758 476.099 227.094 476.171 225.286 476.026C223.478 475.882 221.598 475.376 219.862 474.58C218.994 474.146 218.126 473.712 217.403 473.133C216.607 472.627 215.956 471.976 215.378 471.47C214.727 470.891 214.365 470.385 213.859 469.879C213.497 469.373 213.063 468.866 212.702 468.36C211.328 466.407 210.315 464.527 209.447 462.791C207.711 459.175 206.409 455.775 205.252 452.304C202.938 445.433 201.057 438.707 199.394 431.908C197.73 425.11 196.212 418.383 194.837 411.585C192.089 397.988 189.702 384.463 187.677 370.794L198.381 368.913C201.274 382.149 204.457 395.456 208.001 408.547C209.809 415.057 211.617 421.566 213.642 428.003C215.667 434.367 217.837 440.732 220.296 446.735C221.525 449.7 222.899 452.593 224.274 455.125C224.997 456.354 225.72 457.511 226.371 458.307C226.516 458.524 226.66 458.668 226.805 458.813C226.877 458.885 227.022 459.03 227.094 459.03C227.167 459.102 227.167 459.03 227.094 458.958C227.022 458.885 226.95 458.813 226.877 458.741C226.66 458.596 226.443 458.524 226.371 458.524C226.299 458.451 226.371 458.451 226.588 458.379C227.022 458.235 227.89 457.873 228.83 457.294C230.783 456.137 232.953 454.257 235.122 452.159C239.39 447.964 243.512 442.974 247.418 437.767C249.37 435.163 251.251 432.487 253.131 429.811C254.072 428.437 254.939 427.062 255.88 425.688L257.182 423.663L257.832 422.651L258.411 421.71L277.288 433.933Z" fill="white" stroke="black" stroke-width="1.4465" stroke-miterlimit="10"/>
<path d="M425.409 509.007V468.36" stroke="#090909" stroke-width="21.6975" stroke-miterlimit="10"/>
<path fill-rule="evenodd" clip-rule="evenodd" d="M454.484 400.808L440.164 509.007H302.457L316.777 400.808C316.777 377.592 335.582 358.715 358.87 358.715H412.391C420.347 358.715 427.724 360.885 434.088 364.718C434.884 365.225 435.68 365.731 436.475 366.237C436.692 366.382 436.909 366.526 437.126 366.743C437.849 367.25 438.573 367.828 439.296 368.407C439.513 368.552 439.73 368.769 439.947 368.986C440.164 369.13 440.381 369.347 440.525 369.492C440.815 369.781 441.104 370.07 441.393 370.287C441.683 370.577 441.972 370.794 442.189 371.083C442.406 371.3 442.623 371.517 442.767 371.734C442.984 371.951 443.201 372.24 443.491 372.457C443.925 372.963 444.431 373.47 444.865 373.976C445.009 374.121 445.154 374.338 445.299 374.555C445.805 375.133 446.239 375.784 446.673 376.435C446.89 376.797 447.179 377.158 447.396 377.448C447.613 377.809 447.83 378.171 448.047 378.532C448.047 378.605 448.119 378.605 448.119 378.677C448.336 379.039 448.553 379.4 448.77 379.762C448.915 380.051 449.132 380.413 449.277 380.702C449.349 380.774 449.349 380.847 449.421 380.919C449.638 381.281 449.855 381.715 450 382.076C450.145 382.438 450.362 382.8 450.506 383.089C450.795 383.667 451.012 384.174 451.229 384.752C451.374 384.969 451.446 385.259 451.519 385.548C451.663 385.837 451.736 386.199 451.88 386.488C451.953 386.705 452.025 386.994 452.097 387.211C452.387 388.079 452.676 388.947 452.893 389.887C452.965 390.177 453.038 390.466 453.11 390.683C453.327 391.551 453.544 392.419 453.688 393.287C453.761 393.576 453.761 393.793 453.833 394.01C453.833 394.227 453.905 394.516 453.905 394.733C454.05 395.673 454.122 396.614 454.195 397.554C454.195 397.843 454.195 398.06 454.267 398.349C454.267 398.422 454.267 398.494 454.267 398.566C454.267 398.856 454.267 399.145 454.339 399.434C454.484 400.013 454.484 400.375 454.484 400.808Z" fill="#404046"/>
<path fill-rule="evenodd" clip-rule="evenodd" d="M454.484 400.809L440.164 509.007H390.983L404.797 404.859C404.797 386.054 417.092 370.143 434.088 364.791C434.884 365.297 435.679 365.803 436.475 366.31C436.692 366.454 436.909 366.599 437.126 366.816C437.849 367.322 438.572 367.901 439.296 368.479C439.513 368.624 439.73 368.841 439.947 369.058C440.164 369.203 440.381 369.42 440.525 369.564C440.815 369.853 441.104 370.143 441.393 370.36C441.682 370.649 441.972 370.866 442.189 371.155C442.406 371.372 442.623 371.589 442.767 371.806C442.984 372.023 443.201 372.312 443.491 372.529C443.925 373.036 444.431 373.542 444.865 374.048C445.009 374.193 445.154 374.41 445.299 374.627C445.805 375.206 446.239 375.856 446.673 376.507C446.89 376.869 447.179 377.231 447.396 377.52C447.613 377.882 447.83 378.243 448.047 378.605C448.047 378.677 448.119 378.677 448.119 378.749C448.336 379.111 448.553 379.473 448.77 379.834C448.915 380.124 449.132 380.485 449.277 380.775C449.349 380.847 449.349 380.919 449.421 380.991C449.638 381.353 449.855 381.787 450 382.149C450.144 382.51 450.361 382.872 450.506 383.161C450.795 383.74 451.012 384.246 451.229 384.825C451.374 385.042 451.446 385.331 451.519 385.62C451.663 385.91 451.736 386.271 451.88 386.561C451.953 386.777 452.025 387.067 452.097 387.284C452.387 388.152 452.676 389.02 452.893 389.96C452.965 390.249 453.037 390.538 453.11 390.755C453.327 391.623 453.544 392.491 453.688 393.359C453.761 393.648 453.761 393.865 453.833 394.082C453.833 394.299 453.905 394.589 453.905 394.806C454.05 395.746 454.122 396.686 454.195 397.626C454.195 397.916 454.195 398.133 454.267 398.422C454.267 398.494 454.267 398.566 454.267 398.639C454.267 398.928 454.267 399.217 454.339 399.507C454.484 400.013 454.484 400.375 454.484 400.809Z" fill="#1E1B23"/>
<path fill-rule="evenodd" clip-rule="evenodd" d="M454.484 400.809L440.164 509.007H390.983L404.797 404.859C404.797 386.054 417.092 370.143 434.088 364.791C434.884 365.297 435.679 365.803 436.475 366.31C436.692 366.454 436.909 366.599 437.126 366.816C437.849 367.322 438.572 367.901 439.296 368.479C439.513 368.624 439.73 368.841 439.947 369.058C440.164 369.203 440.381 369.42 440.525 369.564C440.815 369.853 441.104 370.143 441.393 370.36C441.682 370.649 441.972 370.866 442.189 371.155C442.406 371.372 442.623 371.589 442.767 371.806C442.984 372.023 443.201 372.312 443.491 372.529C443.925 373.036 444.431 373.542 444.865 374.048C445.009 374.193 445.154 374.41 445.299 374.627C445.805 375.206 446.239 375.856 446.673 376.507C446.89 376.869 447.179 377.231 447.396 377.52C447.613 377.882 447.83 378.243 448.047 378.605C448.047 378.677 448.119 378.677 448.119 378.749C448.336 379.111 448.553 379.473 448.77 379.834C448.915 380.124 449.132 380.485 449.277 380.775C449.349 380.847 449.349 380.919 449.421 380.991C449.638 381.353 449.855 381.787 450 382.149C450.144 382.51 450.361 382.872 450.506 383.161C450.795 383.74 451.012 384.246 451.229 384.825C451.374 385.042 451.446 385.331 451.519 385.62C451.663 385.91 451.736 386.271 451.88 386.561C451.953 386.777 452.025 387.067 452.097 387.284C452.387 388.152 452.676 389.02 452.893 389.96C452.965 390.249 453.037 390.538 453.11 390.755C453.327 391.623 453.544 392.491 453.688 393.359C453.761 393.648 453.761 393.865 453.833 394.082C453.833 394.299 453.905 394.589 453.905 394.806C454.05 395.746 454.122 396.686 454.195 397.626C454.195 397.916 454.195 398.133 454.267 398.422C454.267 398.494 454.267 398.566 454.267 398.639C454.267 398.928 454.267 399.217 454.339 399.507C454.484 400.013 454.484 400.375 454.484 400.809Z" fill="#1E1B23"/>
<path fill-rule="evenodd" clip-rule="evenodd" d="M271.936 283.353C271.936 283.353 253.565 307.292 278.517 313.657L271.936 283.353Z" fill="#1E1B23"/>
<path fill-rule="evenodd" clip-rule="evenodd" d="M332.978 338.32L335.509 361.174C337.245 361.247 339.27 361.391 341.802 361.536C340.138 364.429 332.833 375.278 315.403 376.29C298.624 377.303 299.853 368.407 300.721 365.442C302.457 364.935 304.193 364.501 306.073 363.995L306.652 347.505C306.652 347.505 296.96 349.096 287.269 348.445C276.275 347.722 276.565 329.279 275.48 321.685C274.539 315.32 273.527 308.956 274.322 302.519C274.395 301.651 274.539 300.855 274.756 299.988L296.309 280.46L331.098 282.991L335.075 314.597C336.884 309.245 353.446 302.447 357.424 314.525C362.559 330.075 332.978 338.32 332.978 338.32Z" fill="white" stroke="#000222" stroke-width="1.4465" stroke-miterlimit="10"/>
<path opacity="0.15" fill-rule="evenodd" clip-rule="evenodd" d="M283.508 313.729C283.508 315.32 282.134 318.213 280.398 318.213C278.662 318.213 277.288 315.393 277.288 313.729C277.288 312.066 278.662 311.198 280.398 311.198C282.134 311.198 283.508 312.138 283.508 313.729Z" fill="#335573"/>
<path opacity="0.15" fill-rule="evenodd" clip-rule="evenodd" d="M305.061 313.729C305.061 315.176 303.686 317.635 302.023 317.635C300.36 317.635 298.985 315.103 298.985 313.729C298.985 312.283 300.36 311.487 302.023 311.487C303.686 311.487 305.061 312.283 305.061 313.729Z" fill="#335573"/>
<path fill-rule="evenodd" clip-rule="evenodd" d="M348.673 307.799C348.673 307.799 363.933 307.654 350.698 277.061C331.025 256.665 308.677 270.696 308.677 270.696C308.677 270.696 303.759 249.866 290.017 249.939C270.489 250.011 267.524 280.243 267.524 280.243C267.524 280.243 270.417 263.319 264.848 265.706C259.279 268.02 246.333 323.132 323.937 296.516C323.937 296.516 317.284 311.56 335.076 314.597C335.076 314.597 338.186 308.16 348.673 307.799Z" fill="#1E1B23"/>
<path fill-rule="evenodd" clip-rule="evenodd" d="M402.699 406.667L372.25 429.377L365.886 507.777H278.662L270.923 428.509L254.072 418.673L265.86 391.479H266.005C266.511 390.466 267.018 389.453 267.596 388.369C274.901 375.133 287.486 367.684 300.793 364.067C301.589 363.85 300.721 363.85 300.576 365.731C300.432 367.611 301.01 370.215 301.589 371.011C303.108 372.819 305.35 373.904 306.218 374.121C307.086 374.338 307.809 374.482 308.605 374.699C309.183 374.844 312.365 375.061 312.872 374.988C317.428 374.772 319.598 374.555 322.491 373.831C323.503 373.614 324.516 373.325 325.746 372.819C327.12 372.24 329.289 371.445 331.459 370.215C333.34 369.13 335.292 367.756 336.739 366.31C338.402 364.574 339.56 363.417 340.355 362.332C341.078 361.174 341.078 361.319 341.295 361.03C341.44 360.813 341.585 360.596 341.657 360.379C341.729 360.09 341.295 360.09 341.802 360.162C348.6 360.813 355.833 362.549 363.788 366.31C388.307 377.881 402.699 406.667 402.699 406.667Z" fill="#1E1B23"/>
<path fill-rule="evenodd" clip-rule="evenodd" d="M346.286 362.115C343.755 366.309 334.642 378.532 314.174 379.69C294.429 380.847 295.008 370.866 296.02 366.816C297.611 366.237 299.202 365.803 300.794 365.369C301.517 365.152 300.721 365.152 300.504 367.033C300.36 368.913 300.938 371.517 301.589 372.312C303.036 374.121 305.278 375.205 306.218 375.422C307.086 375.639 307.809 375.784 308.605 376.001C309.183 376.146 312.366 376.363 312.872 376.29C317.428 376.073 319.598 375.856 322.491 375.133C323.504 374.916 324.516 374.627 325.746 374.121C327.12 373.542 329.29 372.746 331.459 371.517C333.34 370.432 335.293 369.058 336.739 367.611C338.475 365.876 339.56 364.791 340.355 363.633C341.079 362.549 341.078 362.621 341.295 362.332C341.44 362.115 341.585 361.825 341.657 361.681C341.729 361.391 341.295 361.391 341.874 361.464C343.248 361.608 344.767 361.825 346.286 362.115Z" fill="#1E1B23"/>
<path opacity="0.2005" d="M372.251 430.534L364.584 435.814L345.997 414.261" stroke="black" stroke-width="3.61625"/>
<path d="M280.253 316.839C281.811 316.839 283.074 315.576 283.074 314.019C283.074 312.461 281.811 311.198 280.253 311.198C278.695 311.198 277.432 312.461 277.432 314.019C277.432 315.576 278.695 316.839 280.253 316.839Z" fill="black"/>
<path d="M279.53 313.44C279.929 313.44 280.253 313.116 280.253 312.717C280.253 312.317 279.929 311.993 279.53 311.993C279.13 311.993 278.807 312.317 278.807 312.717C278.807 313.116 279.13 313.44 279.53 313.44Z" fill="white"/>
<path d="M301.878 316.261C303.436 316.261 304.699 314.998 304.699 313.44C304.699 311.882 303.436 310.619 301.878 310.619C300.32 310.619 299.058 311.882 299.058 313.44C299.058 314.998 300.32 316.261 301.878 316.261Z" fill="black"/>
<path d="M301.155 312.934C301.555 312.934 301.878 312.61 301.878 312.21C301.878 311.811 301.555 311.487 301.155 311.487C300.756 311.487 300.432 311.811 300.432 312.21C300.432 312.61 300.756 312.934 301.155 312.934Z" fill="white"/>
<path d="M304.265 306.786C304.265 306.786 309.834 304.689 311.136 311.994" stroke="#1E1B23" stroke-width="2.893" stroke-miterlimit="10" stroke-linecap="round"/>
<path d="M276.058 311.415C276.058 311.415 276.926 307.075 282.061 309.101" stroke="#1E1B23" stroke-width="2.893" stroke-miterlimit="10" stroke-linecap="round"/>
<path d="M356.762 320.379C359.548 309.013 355.14 298.164 346.916 296.148C338.692 294.132 329.766 301.711 326.979 313.078C324.193 324.444 328.601 335.293 336.825 337.31C345.049 339.326 353.975 331.746 356.762 320.379Z" fill="#00BFFF" stroke="black" stroke-width="2.21076" stroke-miterlimit="10"/>
<path d="M354.901 320.943C357.021 312.292 353.678 304.038 347.432 302.506C341.186 300.975 334.404 306.747 332.283 315.398C330.162 324.049 333.506 332.303 339.751 333.834C345.997 335.365 352.78 329.594 354.901 320.943Z" fill="#1652F0" stroke="black" stroke-width="1.68054" stroke-miterlimit="10"/>
<path d="M355.04 321.237C356.78 314.138 354.04 307.365 348.919 306.11C343.799 304.854 338.236 309.592 336.496 316.691C334.756 323.79 337.496 330.563 342.617 331.818C347.737 333.074 353.299 328.336 355.04 321.237Z" fill="#00BFFF" stroke="black" stroke-width="1.37996" stroke-miterlimit="10"/>
<path d="M352 298.903C350.553 297.528 348.817 296.588 346.865 296.154C345.49 295.793 344.116 295.72 342.742 295.937C340.572 285.523 324.082 273.734 308.749 267.297C308.749 267.297 341.657 261.077 352 298.903Z" fill="#00BFFF" stroke="black" stroke-width="2.21076" stroke-miterlimit="10"/>
<path fill-rule="evenodd" clip-rule="evenodd" d="M268.898 290.441C268.898 290.441 286.979 303.17 300.215 295.286L268.898 290.441Z" fill="#1E1B23"/>
<path d="M268.898 290.441C268.898 290.441 286.979 303.17 300.215 295.286" stroke="white" stroke-width="0.723249" stroke-miterlimit="10" stroke-linecap="round"/>
<path fill-rule="evenodd" clip-rule="evenodd" d="M269.477 313.151H268.247C267.886 313.151 267.596 312.861 267.596 312.5V311.27C267.596 310.909 267.886 310.619 268.247 310.619H269.477V313.151Z" fill="#1E1B23"/>
<path d="M267.958 311.704L274.25 314.236" stroke="#1E1B23" stroke-width="0.723249" stroke-miterlimit="10"/>
<path fill-rule="evenodd" clip-rule="evenodd" d="M266.801 298.035C266.801 298.035 269.043 302.085 273.31 302.374L266.801 298.035Z" fill="#1E1B23"/>
<path d="M266.801 298.035C266.801 298.035 269.043 302.085 273.31 302.374" stroke="white" stroke-width="0.723249" stroke-miterlimit="10" stroke-linecap="round"/>
<path d="M283.146 322.191H275.841C272.08 322.191 269.043 319.154 269.043 315.393V310.475C269.043 309.896 269.477 309.462 270.055 309.462H287.052C288.643 309.462 289.945 310.764 289.945 312.355V315.465C289.945 319.154 286.907 322.191 283.146 322.191Z" stroke="#1E1B23" stroke-width="0.723249" stroke-miterlimit="10"/>
<path opacity="0.3" d="M283.146 322.191H275.841C272.08 322.191 269.043 319.154 269.043 315.393V310.475C269.043 309.896 269.477 309.462 270.055 309.462H287.052C288.643 309.462 289.945 310.764 289.945 312.355V315.465C289.945 319.154 286.907 322.191 283.146 322.191Z" fill="#D0E9FD"/>
<g opacity="0.5">
<path opacity="0.5" d="M279.214 310.657L278.549 309.993L273.128 315.414L273.793 316.078L279.214 310.657Z" fill="#D0E9FD"/>
<path opacity="0.5" d="M279.68 311.126L279.476 310.921L274.055 316.342L274.259 316.547L279.68 311.126Z" fill="#D0E9FD"/>
<path opacity="0.5" d="M283.278 314.749L283.073 314.545L277.652 319.966L277.857 320.17L283.278 314.749Z" fill="#D0E9FD"/>
</g>
<path d="M302.674 322.191H309.979C313.74 322.191 316.777 319.154 316.777 315.393V310.475C316.777 309.896 316.343 309.462 315.765 309.462H298.768C297.177 309.462 295.875 310.764 295.875 312.355V315.465C295.875 319.154 298.913 322.191 302.674 322.191Z" stroke="#1E1B23" stroke-width="0.723249" stroke-miterlimit="10"/>
<path opacity="0.3" d="M302.674 322.191H309.979C313.74 322.191 316.777 319.154 316.777 315.393V310.475C316.777 309.896 316.343 309.462 315.765 309.462H298.768C297.177 309.462 295.875 310.764 295.875 312.355V315.465C295.875 319.154 298.913 322.191 302.674 322.191Z" fill="#D0E9FD"/>
<g opacity="0.5">
<path opacity="0.5" d="M312.062 316.111L312.727 315.446L307.306 310.025L306.641 310.69L312.062 316.111Z" fill="#D0E9FD"/>
<path opacity="0.5" d="M311.596 316.575L311.801 316.371L306.38 310.95L306.175 311.154L311.596 316.575Z" fill="#D0E9FD"/>
<path opacity="0.5" d="M307.999 320.146L308.203 319.942L302.782 314.521L302.578 314.726L307.999 320.146Z" fill="#D0E9FD"/>
</g>
<path d="M316.633 310.33L326.758 310.836" stroke="#1E1B23" stroke-width="0.723249" stroke-miterlimit="10"/>
<path d="M290 312.029C290 312.029 293.038 309.714 296.075 312.029" stroke="#1E1B23" stroke-width="1.4465" stroke-miterlimit="10"/>
<path d="M348.89 276.844C348.89 276.844 361.619 277.422 358.798 281.111C355.905 284.872 352.144 276.699 348.89 276.844Z" fill="#1E1B23"/>
<path d="M350.264 276.844C350.264 276.844 359.594 285.523 354.965 286.535C350.336 287.548 352.867 278.869 350.264 276.844Z" fill="#1E1B23"/>
<path d="M292.259 333.691C292.693 334.921 293.344 336.078 294.429 336.873C295.731 337.814 297.539 338.103 298.913 337.307C301.01 336.078 301.227 333.474 301.083 331.304C298.334 332.606 295.369 333.402 292.259 333.691Z" fill="#1E1B23"/>
<path d="M292.331 318.286C292.331 318.286 292.042 324.216 284.81 328.339C280.759 330.653 298.696 335.861 292.331 318.286Z" fill="#335573"/>
<path d="M299.925 335.427C299.636 336.005 299.202 336.439 298.624 336.801C297.466 337.452 296.02 337.307 294.935 336.584C295.224 335.499 296.382 334.631 297.756 334.631C298.624 334.631 299.347 334.92 299.925 335.427Z" fill="white"/>
<path opacity="0.4" d="M306.724 347.433C306.724 347.433 321.189 344.901 323.503 342.081L306.29 356.835L306.724 347.433Z" fill="black"/>
<path fill-rule="evenodd" clip-rule="evenodd" d="M341.802 361.464C341.223 361.391 341.657 361.391 341.585 361.681C341.585 361.825 341.44 362.042 341.223 362.332C341.078 362.549 341.078 362.476 340.283 363.633C339.487 364.791 338.402 365.876 336.667 367.611C335.22 369.058 333.267 370.504 331.387 371.517C329.217 372.746 327.047 373.542 325.673 374.121C324.444 374.627 323.359 374.916 322.419 375.133C319.598 375.784 317.356 376.001 312.799 376.29C312.221 376.29 309.038 376.073 308.532 376.001C307.737 375.856 307.013 375.712 306.146 375.422C305.278 375.205 303.036 374.121 301.517 372.312C300.866 371.517 300.287 368.986 300.432 367.033C300.649 365.152 301.444 365.152 300.721 365.369C299.13 365.803 297.539 366.309 295.948 366.816C294.935 370.866 294.357 380.847 314.101 379.69C334.569 378.46 343.682 366.237 346.214 362.115C344.767 361.825 343.248 361.608 341.802 361.464Z" fill="#080606"/>
<path d="M324 392.401H301.255C301.138 392.401 301.021 392.519 301.021 392.636V396.153C301.021 396.27 301.138 396.388 301.255 396.388H323.766C323.883 396.388 324 396.505 324 396.622V414.912C324 415.146 323.766 415.146 323.648 415.029L312.745 404.126C312.628 404.008 312.393 403.891 312.159 403.891H304.89" stroke="#EF9700" stroke-width="2" stroke-miterlimit="10" stroke-linecap="round"/>
<path d="M320.131 400.022H301.255C301.138 400.022 301.021 400.139 301.021 400.257V414.912C301.021 415.029 301.138 415.146 301.255 415.146H320.717" stroke="#EF9700" stroke-width="2" stroke-miterlimit="10" stroke-linecap="round"/>
<path d="M201.057 478.919H14.8207C13.2295 478.919 12 477.618 12 476.099V360.451C12 358.86 13.3018 357.631 14.8207 357.631H201.057C202.649 357.631 203.878 358.932 203.878 360.451V476.026C203.95 477.618 202.649 478.919 201.057 478.919Z" fill="#C6C6C6" stroke="#060606" stroke-width="2.16975" stroke-miterlimit="10"/>
<path d="M112.532 510.815H91.919C90.5448 510.815 89.46 509.73 89.46 508.356V408.764C89.46 407.39 90.5448 406.305 91.919 406.305H112.459C113.833 406.305 114.918 407.39 114.918 408.764V508.356C114.918 509.73 113.833 510.815 112.532 510.815Z" fill="#8C8C8C" stroke="#060606" stroke-width="2.16975" stroke-miterlimit="10"/>
<path d="M188.762 357.631V478.702" stroke="#060606" stroke-width="0.853362" stroke-miterlimit="10"/>
<path d="M108.192 406.667V505.535" stroke="#060606" stroke-width="0.853362" stroke-miterlimit="10"/>
<path d="M24.8015 509.007H278.662H302.457H365.886H390.983H425.409H440.164H495.854" stroke="black" stroke-width="7.23249" stroke-miterlimit="10" stroke-linecap="round"/>
<path d="M340.789 524.99H568.251" stroke="black" stroke-width="3.61625" stroke-miterlimit="10" stroke-linecap="round"/>
<path d="M200.624 524.99H289.294" stroke="black" stroke-width="3.61625" stroke-miterlimit="10" stroke-linecap="round" stroke-linejoin="round"/>
<path d="M407.111 457.801C406.822 461.995 405.882 466.263 404.363 470.313C402.772 474.363 400.53 478.196 397.854 481.451C395.178 484.778 392.068 487.526 388.813 489.768C385.558 492.01 382.159 493.818 378.76 495.337C377.096 496.133 375.36 496.711 373.697 497.362C371.961 497.941 370.298 498.52 368.562 498.953C365.163 499.966 361.763 500.617 358.364 501.268C351.638 502.425 344.912 503.076 338.33 503.365C331.676 503.655 325.167 503.655 318.658 503.365C312.293 503.076 305.929 502.642 299.636 502.063C298.19 503.076 291.536 506.041 281.989 506.475C271.14 507.054 264.052 492.661 266.873 489.768C269.621 486.803 299.781 490.13 299.781 490.13C306.073 490.13 312.293 489.913 318.513 489.551C324.733 489.19 330.881 488.611 336.956 487.743C343.031 486.875 348.962 485.718 354.603 484.127C357.424 483.331 360.245 482.463 362.848 481.379C364.222 480.872 365.452 480.294 366.754 479.715C367.983 479.064 369.213 478.486 370.37 477.835C374.999 475.231 378.832 471.976 381.146 468.432C383.461 464.888 384.401 461.055 384.256 456.716C384.112 452.376 382.81 447.53 380.785 442.757C379.772 440.37 378.543 437.984 377.169 435.669C376.518 434.512 375.794 433.355 374.999 432.27C374.637 431.691 374.276 431.185 373.914 430.679L373.335 429.956L373.046 429.594C372.974 429.522 372.901 429.449 372.901 429.449L394.527 413.755C394.816 414.116 394.888 414.333 395.033 414.55L395.467 415.201L396.19 416.431C396.696 417.226 397.13 418.094 397.564 418.89C398.432 420.553 399.3 422.217 400.023 423.88C401.542 427.207 402.916 430.679 404.073 434.295C405.231 437.911 406.099 441.6 406.677 445.505C407.183 449.556 407.4 453.606 407.111 457.801Z" fill="white" stroke="black" stroke-width="1.4465" stroke-miterlimit="10"/>
</svg>
