<svg width="34" height="34" viewBox="0 0 34 34" fill="none" xmlns="http://www.w3.org/2000/svg">
<rect width="34" height="34" rx="4" fill="#F3ECEB"/>
<path d="M29.91 4H4.2699C4.08997 4 4 4.09091 4 4.27273V8.27273C4 8.36364 4.08997 8.54545 4.2699 8.54545H29.7301C29.8201 8.54545 30 8.63636 30 8.81818V29.7273C30 29.9091 29.7301 30.0909 29.5502 29.9091L17.2249 17.3636C17.045 17.1818 16.8651 17.0909 16.5952 17.0909H8.4083" stroke="black" stroke-width="2" stroke-miterlimit="10" stroke-linecap="round"/>
<path d="M25.5917 12.7273H4.2699C4.17993 12.7273 4 12.8182 4 13V29.7273C4 29.8182 4.08997 30 4.2699 30H26.3114" stroke="black" stroke-width="2" stroke-miterlimit="10" stroke-linecap="round"/>
</svg>
