<svg width="96" height="97" viewBox="0 0 96 97" fill="none" xmlns="http://www.w3.org/2000/svg">
<circle cx="48" cy="48.5674" r="48" fill="#F5F5F5"/>
<path d="M47.3632 45.7212C46.3836 45.1325 45.1101 45.0344 43.5428 45.623C40.9958 46.7023 39.3305 49.5476 38.155 51.9023C37.4693 53.1778 35.1183 58.2796 33.355 58.2796C32.2775 58.2796 44.1305 62.008 48.7346 56.4155C52.3591 51.9023 50.3999 47.4872 47.3632 45.7212Z" stroke="black" stroke-miterlimit="10"/>
<path d="M77.5341 19.5273C72.6361 27.3764 59.5096 46.2141 50.6933 50.7273C50.4973 48.5689 49.1259 46.7047 47.3626 45.7236C46.9708 45.5273 46.481 45.3311 45.9912 45.233C47.6565 42.584 50.9871 37.7764 55.6892 33.6557C60.6851 29.4368 70.7749 22.1764 76.1626 18.2519C77.0443 17.6632 78.1218 18.6443 77.5341 19.5273Z" fill="#00BFFF" stroke="black" stroke-miterlimit="10"/>
<path d="M57.2558 45.6248C54.9048 47.8814 52.6518 49.6474 50.5946 50.7266C50.3987 48.5682 49.0273 46.704 47.264 45.7229C46.8722 45.5266 46.3824 45.3304 45.8926 45.2323C46.8722 43.6625 48.4395 41.3078 50.5946 38.7568C53.7293 40.1304 56.0803 42.5833 57.2558 45.6248Z" stroke="black" stroke-miterlimit="10"/>
<path d="M74.3018 31.6917C77.4365 36.5974 79.1998 42.2879 79.1998 48.5672C79.1998 52.3936 78.5141 56.0238 77.2406 59.3596C75.2814 57.8879 72.8325 56.9068 70.1876 56.9068C63.9182 56.9068 58.7263 62.0087 58.7263 68.3861C58.7263 71.5257 59.9998 74.371 61.959 76.4313C57.7467 78.5898 52.9467 79.7672 47.9508 79.7672C30.71 79.7672 16.7998 65.8351 16.7998 48.5672C16.7998 31.2993 30.71 17.3672 47.9508 17.3672C53.1427 17.3672 58.0406 18.6427 62.3508 20.8993" stroke="black" stroke-miterlimit="10" stroke-linecap="round"/>
<path d="M45.6975 34.2432C48.1862 34.2432 50.2037 32.2226 50.2037 29.73C50.2037 27.2374 48.1862 25.2168 45.6975 25.2168C43.2089 25.2168 41.1914 27.2374 41.1914 29.73C41.1914 32.2226 43.2089 34.2432 45.6975 34.2432Z" fill="#00BFFF" stroke="black" stroke-miterlimit="10"/>
<path d="M32.0823 40.3252C34.571 40.3252 36.5884 38.3046 36.5884 35.812C36.5884 33.3195 34.571 31.2988 32.0823 31.2988C29.5936 31.2988 27.5762 33.3195 27.5762 35.812C27.5762 38.3046 29.5936 40.3252 32.0823 40.3252Z" fill="#00BFFF" stroke="black" stroke-miterlimit="10"/>
<path d="M27.1839 53.2764C29.6725 53.2764 31.69 51.2558 31.69 48.7632C31.69 46.2706 29.6725 44.25 27.1839 44.25C24.6952 44.25 22.6777 46.2706 22.6777 48.7632C22.6777 51.2558 24.6952 53.2764 27.1839 53.2764Z" stroke="black" stroke-miterlimit="10"/>
<path d="M46.4807 71.8204C48.9694 71.8204 50.9869 69.7997 50.9869 67.3072C50.9869 64.8146 48.9694 62.7939 46.4807 62.7939C43.9921 62.7939 41.9746 64.8146 41.9746 67.3072C41.9746 69.7997 43.9921 71.8204 46.4807 71.8204Z" fill="#00BFFF" stroke="black" stroke-miterlimit="10"/>
<path d="M36.7837 61.5181C36.7837 63.9709 34.7266 66.0313 32.2776 66.0313C29.8286 66.0313 27.7715 63.9709 27.7715 61.5181C27.7715 59.0653 29.8286 57.0049 32.2776 57.0049" stroke="black" stroke-miterlimit="10" stroke-linecap="round"/>
<path d="M57.2558 45.6248C54.9048 47.8814 52.6518 49.6474 50.5946 50.7266C50.3987 48.5682 49.0273 46.704 47.264 45.7229C46.8722 45.5266 46.3824 45.3304 45.8926 45.2323C46.8722 43.6625 48.4395 41.3078 50.5946 38.7568C53.7293 40.1304 56.0803 42.5833 57.2558 45.6248Z" stroke="black" stroke-miterlimit="10" stroke-linecap="round"/>
</svg>
