<svg width="100" height="100" viewBox="0 0 100 100" fill="none" xmlns="http://www.w3.org/2000/svg">
<path d="M50 100C77.6142 100 100 77.6142 100 50C100 22.3858 77.6142 0 50 0C22.3858 0 0 22.3858 0 50C0 77.6142 22.3858 100 50 100Z" fill="#EF9700"/>
<path d="M50 80C66.5685 80 80 66.5685 80 50C80 33.4315 66.5685 20 50 20C33.4315 20 20 33.4315 20 50C20 66.5685 33.4315 80 50 80Z" fill="#F3ECEB" stroke="black" stroke-miterlimit="10"/>
<path d="M50.0002 53C55.9649 53 60.8002 48.1647 60.8002 42.2C60.8002 36.2353 55.9649 31.4 50.0002 31.4C44.0355 31.4 39.2002 36.2353 39.2002 42.2C39.2002 48.1647 44.0355 53 50.0002 53Z" fill="#00BFFF" stroke="black" stroke-miterlimit="10"/>
<path d="M73.0999 69.1C67.5999 75.7 59.2999 80 49.9999 80C40.6999 80 32.3999 75.8 26.8999 69.1C30.2999 59.7 39.3999 53 49.9999 53C60.5999 53 69.6999 59.7 73.0999 69.1Z" stroke="black" stroke-miterlimit="10"/>
</svg>
