<svg width="96" height="97" viewBox="0 0 96 97" fill="none" xmlns="http://www.w3.org/2000/svg">
<circle cx="48" cy="48.5674" r="48" fill="#F5F5F5"/>
<path d="M72.4986 74.0725C80.5325 74.0725 87.0451 67.5598 87.0451 59.526C87.0451 51.4922 80.5325 44.9795 72.4986 44.9795C64.4648 44.9795 57.9521 51.4922 57.9521 59.526C57.9521 67.5598 64.4648 74.0725 72.4986 74.0725Z" fill="#00BFFF" stroke="black" stroke-miterlimit="10" stroke-linecap="round"/>
<path d="M24.1471 74.0725C32.1809 74.0725 38.6936 67.5598 38.6936 59.526C38.6936 51.4922 32.1809 44.9795 24.1471 44.9795C16.1133 44.9795 9.60059 51.4922 9.60059 59.526C9.60059 67.5598 16.1133 74.0725 24.1471 74.0725Z" fill="#00BFFF" stroke="black" stroke-miterlimit="10" stroke-linecap="round"/>
<path d="M72.8274 60.5173L54.8096 22.498H75.3896C75.3896 22.498 75.8855 32.8294 64.0664 33.0773" stroke="black" stroke-miterlimit="10" stroke-linecap="round"/>
<path d="M48.5291 64.5679C51.1766 64.5679 53.3228 62.4217 53.3228 59.7742C53.3228 57.1267 51.1766 54.9805 48.5291 54.9805C45.8816 54.9805 43.7354 57.1267 43.7354 59.7742C43.7354 62.4217 45.8816 64.5679 48.5291 64.5679Z" stroke="black" stroke-miterlimit="10" stroke-linecap="round"/>
<path d="M43.7359 59.7731H24.8916L34.3138 35.0605H60.514L52.2489 56.3017" stroke="black" stroke-miterlimit="10" stroke-linecap="round"/>
<path d="M34.3135 35.0601V28.8613" stroke="black" stroke-miterlimit="10" stroke-linecap="round"/>
<path d="M43.9821 28.6974H31.8324C31.0059 28.6974 30.3447 28.0362 30.3447 27.2097V23.6557C30.3447 22.8292 31.0059 22.168 31.8324 22.168H37.4527C41.0893 22.168 43.9821 25.0607 43.9821 28.6974Z" stroke="black" stroke-miterlimit="10" stroke-linecap="round"/>
</svg>
