<svg width="60" height="60" viewBox="0 0 60 60" fill="none" xmlns="http://www.w3.org/2000/svg">
<rect width="60" height="60" rx="2.4" fill="#FFA939"/>
<path d="M53.8339 6H6.49827C6.16609 6 6 6.16783 6 6.5035V13.8881C6 14.0559 6.16609 14.3916 6.49827 14.3916H53.5017C53.6678 14.3916 54 14.5594 54 14.8951V53.4964C54 53.8321 53.5017 54.1677 53.1695 53.8321L30.4152 30.6713C30.083 30.3356 29.7509 30.1678 29.2526 30.1678H14.1384" stroke="black" stroke-width="3" stroke-miterlimit="10" stroke-linecap="round"/>
<path d="M45.8616 22.112H6.49827C6.33218 22.112 6 22.2798 6 22.6155V53.4965C6 53.6644 6.16609 54 6.49827 54H47.1903" stroke="black" stroke-width="3" stroke-miterlimit="10" stroke-linecap="round"/>
</svg>
