<svg width="96" height="97" viewBox="0 0 96 97" fill="none" xmlns="http://www.w3.org/2000/svg">
<circle cx="48" cy="48.5674" r="48" fill="#F5F5F5"/>
<path d="M48.0016 84.5674C67.7888 84.5674 83.8294 68.4496 83.8294 48.5674C83.8294 28.6851 67.7888 12.5674 48.0016 12.5674C28.2145 12.5674 12.1738 28.6851 12.1738 48.5674C12.1738 68.4496 28.2145 84.5674 48.0016 84.5674Z" stroke="black" stroke-miterlimit="10"/>
<path d="M48.0016 84.5674C67.7888 84.5674 83.8294 68.4496 83.8294 48.5674C83.8294 28.6851 67.7888 12.5674 48.0016 12.5674C28.2145 12.5674 12.1738 28.6851 12.1738 48.5674C12.1738 68.4496 28.2145 84.5674 48.0016 84.5674Z" fill="#00BFFF" stroke="black" stroke-miterlimit="10"/>
<path d="M37.9219 14.0391L48.6013 21.5679L59.453 14.2121" stroke="black" stroke-miterlimit="10"/>
<path d="M48.6022 21.5674V36.452L37.0616 44.5866L23.0233 39.2212L19.0615 27.1058" stroke="black" stroke-miterlimit="10"/>
<path d="M48.6045 36.4515L61.2648 44.8457L74.0974 40.6919L78.4036 29.0957" stroke="black" stroke-miterlimit="10"/>
<path d="M12 48.2207L23.0239 39.2207" stroke="black" stroke-miterlimit="10"/>
<path d="M37.061 44.5879L41.195 57.7417L33.0993 69.5975L19.3193 70.4629" stroke="black" stroke-miterlimit="10"/>
<path d="M74.0957 40.6924L84 48.1347" stroke="black" stroke-miterlimit="10"/>
<path d="M61.2624 44.8457L56.4395 57.8265L63.76 69.8553L76.6787 70.2015" stroke="black" stroke-miterlimit="10"/>
<path d="M41.1963 57.7412L56.4403 57.8273" stroke="black" stroke-miterlimit="10"/>
<path d="M33.1006 69.5957L37.1484 82.9226" stroke="black" stroke-miterlimit="10"/>
<path d="M63.7608 69.8555L60.5742 82.317" stroke="black" stroke-miterlimit="10"/>
</svg>
