<svg width="24" height="24" viewBox="0 0 24 24" fill="none" xmlns="http://www.w3.org/2000/svg">
<path d="M21.0933 22.4131H3.05327C1.98994 22.4131 1.14661 21.5698 1.14661 20.5064V7.41643C1.14661 6.3531 1.98994 5.50977 3.05327 5.50977H21.0933C22.1566 5.50977 22.9999 6.3531 22.9999 7.41643V20.5064C22.9999 21.5331 22.1566 22.4131 21.0933 22.4131Z" fill="white" stroke="#222222" stroke-miterlimit="10"/>
<path d="M13.3933 15.8501H10.7533C9.46995 15.8501 8.40662 14.8234 8.40662 13.5034C8.40662 12.2201 9.43328 11.1567 10.7533 11.1567H13.3933C14.6766 11.1567 15.7399 12.1834 15.7399 13.5034C15.7033 14.7867 14.6766 15.8501 13.3933 15.8501Z" fill="#00BFFF" stroke="#222222" stroke-miterlimit="10"/>
<path d="M15.9968 5.36333H8.15015V2.65C8.15015 1.73333 8.88348 1 9.80015 1H14.3468C15.2635 1 15.9968 1.73333 15.9968 2.65V5.36333Z" stroke="#222222" stroke-miterlimit="10"/>
<path d="M1 14.0901H8.59" stroke="#222222" stroke-miterlimit="10"/>
<path d="M15.7034 14.0901H23" stroke="#222222" stroke-miterlimit="10"/>
</svg>
